<?xml version="1.0" encoding="utf-8"?>
<svg version="1.1" width="1024" height="1024" viewBox="0 0 1024 1024" id="svg9" xmlns="http://www.w3.org/2000/svg">
  <desc id="desc1">Created with Fabric.js 4.6.0</desc>
  <g transform="matrix(0.800781, 0, 0, 0.800781, -128.624802, 184.48056)">
    <path id="path1" style="display:inline;fill:#101d30;fill-rule:nonzero;stroke:none;stroke-width:0.5;stroke-linecap:butt;stroke-linejoin:miter;stroke-miterlimit:4;stroke-dasharray:none;stroke-dashoffset:0" d="M 288 -103 L 288 -102.99414 L 428.60156 -102.99414 C 419.66356 -101.70926 410.83798 -100.87937 402.02148 -98.765625 C 368.33248 -90.73561 338.49513 -71.213347 317.64453 -43.560547 C 303.57933 -24.809547 294.20707 -2.965063 290.31055 20.148438 C 289.17806 26.877034 289.49919 34.137908 288 40.710938 L 288 40.716797 L 288 774.89062 L 288 921 L 428.13477 921 L 1170.9609 921 C 1177.6759 919.75 1184.5705 919.44016 1191.3105 918.16016 C 1213.2805 913.82016 1233.9962 904.62414 1251.9512 891.24414 C 1279.9162 870.43914 1299.5602 840.35477 1307.3652 806.38477 C 1309.6602 796.06977 1310.1347 785.71078 1311.6797 775.30078 L 1311.6797 921 L 1312 921 L 1312 775.30078 L 1312 40.089844 L 1312 -103 L 1169.8945 -103 L 428.60156 -103 L 288 -103 z M 1169.8906 -102.99414 L 1311.9941 -102.99414 L 1311.9941 40.095703 C 1310.3741 33.326703 1310.5904 25.717031 1309.4004 18.769531 C 1305.5604 -3.6414688 1295.6459 -25.601016 1282.0859 -43.791016 C 1261.2259 -71.509916 1231.2648 -90.994341 1197.4648 -98.822266 C 1188.3398 -100.94256 1179.1306 -101.65246 1169.8906 -102.99414 z M 288.00586 774.88477 C 289.42254 785.01977 289.77319 795.06477 291.875 805.13477 C 299.10194 839.75977 319.50337 869.835 347.57617 891 C 365.76367 904.565 386.79694 913.82055 409.08594 918.06055 C 415.39094 919.29555 421.87667 919.69914 428.13867 920.99414 L 288.00586 920.99414 L 288.00586 774.88477 z "/>
    <g transform="matrix(1.57, 0, 0, 1.57, 800.590027, 410.079987)" id="g9">
      <path style="fill:#d8d7d8;fill-rule:nonzero;stroke:none;stroke-width:0.5;stroke-linecap:butt;stroke-linejoin:miter;stroke-miterlimit:4;stroke-dasharray:none;stroke-dashoffset:0" d="m -13.354,-260.944 c 17.4215,12.826 34.9095,25.562 52.463,38.207 -8.5265,13.3505 -16.3375,27.258 -24.4245,40.887 l -42.5635,71.5115 c -8.2965,13.959 -16.663,27.876 -25.0995,41.751 -4.4205,7.303 -9.6195,14.705 -13.2485,22.4175 -2.0675,4.394 -3.049,8.7295 -2.2905,13.595 0.6315,4.0535 1.7695,6.7085 4.5405,9.6955 6.78,7.3095 22.906,17.8695 31.6355,24.3545 18.6785,13.875 37.103,28.1 55.8785,41.84 C 11.038,64.65 -1.609,85.9 -14.4025,107.06 L -19.025,103.54 -167.0065,-6.025 c 26.5035,-43.172 52.732,-86.5145 78.684,-130.022 z" stroke-linecap="round" id="path6"/>
      <path style="fill:#d8d7d8;fill-rule:nonzero;stroke:none;stroke-width:0.5;stroke-linecap:butt;stroke-linejoin:miter;stroke-miterlimit:4;stroke-dasharray:none;stroke-dashoffset:0" d="m 15.2575,-93.808 c 13.2845,10.73 27.7675,20.3165 41.52,30.4745 24.692,18.163 49.2835,36.463 73.773,54.8985 12.1545,9.1 24.4775,18.01 36.4525,27.345 -14.6425,24.135 -29.156,48.345 -43.539,72.635 l -99.157,164.9 -2.617,4.5 C 4.9845,247.305 -13.322,234.9 -30.862,222.33 c 6.476,-9.49 12.155,-19.775 18.091,-29.62 L 25.9215,127.77 C 34.287,113.825 42.45,99.75 50.9225,85.87 56.4005,76.895 62.9755,67.68 67.404,58.145 69.327,54.005 70.28,49.75 69.4975,45.19 68.8095,41.18 67.481,38.235 64.6985,35.285 57.5595,27.71 44.282,19.22 35.6945,12.83 16.249,-1.69 -3.286,-16.09 -22.909,-30.3695 -10.0715,-51.446 2.651,-72.5925 15.2575,-93.808 Z" stroke-linecap="round" id="path7"/>
    </g>
  </g>
</svg>