<!-- Generated by SVGMaker - https://svgmaker.io --><!-- Quality: medium --><!-- Type: convert --><!-- Created: 2025-08-31T01:23:43.726Z --><svg version="1.1" xmlns="http://www.w3.org/2000/svg" style="display: block;" viewBox="0 0 1024 1024" width="256" height="256" preserveAspectRatio="none">
<path transform="translate(0,0)" fill="rgb(0,0,0)" fill-opacity="0.984314" d="M 222.632 108.475 C 265.519 107.352 308.711 108.356 351.626 108.347 L 610.271 108.391 L 743.856 108.36 C 771.622 108.356 800.694 106.542 828.182 110.589 C 848.423 113.57 866.767 121.707 882.239 135.167 C 906.175 155.993 916.453 181.439 918.473 212.626 C 921.233 255.226 919.239 298.886 919.242 341.626 L 919.259 582.096 L 919.303 740.569 C 919.31 768.57 921.603 799.032 917.738 826.755 C 914.812 847.747 906.587 866.709 892.549 882.628 C 868.03 910.435 842.944 917.505 807.246 919.847 C 761.021 920.761 714.669 920.068 668.428 920.066 L 411.741 920.046 L 284.171 920.093 C 257.114 920.102 228.933 921.636 202.124 917.82 C 180.637 914.762 162.741 907.472 146.286 893.04 C 121.932 871.681 111.124 845.652 109.108 813.687 C 108.144 798.411 108.681 782.868 108.709 767.563 L 108.745 692.199 L 108.722 451.406 L 108.715 291.554 C 108.714 262.315 106.437 231.003 110.414 202.088 C 113.446 180.049 121.662 160.764 136.523 144.037 C 161.392 116.043 186.788 110.629 222.632 108.475 z M 855.553 859.317 C 865.555 849.268 872.738 838.944 875.113 824.71 C 878.76 802.857 876.815 778.653 876.779 756.454 L 876.707 641.318 L 876.805 230.236 C 876.755 207.984 874.207 186.611 857.651 170.165 C 848.884 161.456 838.415 156.111 826.276 154.009 C 810.615 151.299 793.936 152.012 778.079 152.016 L 716.902 152.075 L 513.099 152.097 C 478.844 152.099 443.744 153.812 409.607 151.812 C 407.224 159.121 407.324 167.711 407.185 175.383 C 406.197 229.841 406.862 871.693 407.614 873.461 C 431.012 879.206 466.664 876.417 491.638 876.421 L 619.505 876.429 L 747.534 876.41 C 770.434 876.404 794.183 877.634 816.979 875.778 C 826.413 875.01 835.836 872.506 843.988 867.581 C 847.998 865.159 852.085 862.475 855.553 859.317 z M 298.5 876.391 C 320.11 876.415 342.663 877.625 364.17 876.106 C 365.368 856.264 364.812 836.277 364.767 816.406 L 364.725 729.466 L 364.73 447.093 L 364.722 246.145 L 364.818 188.756 C 364.87 176.777 365.594 164.386 364.289 152.471 C 339.844 151.58 315.309 151.999 290.85 152.015 C 266.543 152.031 242.156 151.641 217.862 152.478 C 197.671 154.529 179.19 159.041 165.733 175.628 C 158.039 185.112 153.67 196.902 152.374 208.994 C 150.884 222.877 151.293 237.273 151.256 251.232 L 151.239 314.081 L 151.256 514.476 L 151.285 715.315 L 151.258 776.8 C 151.256 791.362 150.83 806.22 152.355 820.712 C 153.99 836.708 161.944 851.388 174.452 861.493 C 181.888 867.479 190.576 871.716 199.872 873.888 C 222.828 879.42 272.442 876.327 298.5 876.391 z"></path>
<path transform="translate(0,0)" fill="rgb(0,0,0)" fill-opacity="0.988235" d="M 211.556 493.454 C 228.406 492.663 245.392 492.996 262.261 492.952 C 275.92 492.916 290.409 491.911 303.902 494.159 C 307.858 494.818 311.237 496.419 314.774 498.248 C 317.772 501.843 319.515 505.562 320.159 510.21 C 321.039 516.568 320.014 523.344 315.917 528.468 C 312.398 532.87 308.868 534.505 303.35 535.191 C 288.644 536.235 273.54 535.585 258.784 535.652 C 245.117 535.714 230.339 536.87 216.806 534.976 C 211.638 534.253 206.014 532.77 201.687 529.735 C 198.346 527.393 196.882 524.38 196.236 520.424 C 195.236 514.297 195.271 504.946 199.171 499.761 C 202.286 495.619 206.638 494.215 211.556 493.454 z"></path>
<path transform="translate(0,0)" fill="rgb(0,0,0)" fill-opacity="0.988235" d="M 211.561 237.454 C 228.408 236.657 245.394 236.995 262.261 236.951 C 275.921 236.916 290.406 235.915 303.902 238.158 C 307.86 238.816 311.241 240.415 314.779 242.243 C 317.778 245.833 319.519 249.564 320.149 254.211 C 321.007 260.548 319.946 267.339 315.88 272.447 C 312.372 276.857 308.944 278.528 303.409 279.19 C 288.686 280.247 273.558 279.589 258.784 279.655 C 245.117 279.716 230.339 280.871 216.806 278.976 C 211.638 278.253 206.014 276.77 201.687 273.736 C 198.346 271.393 196.882 268.38 196.236 264.424 C 195.236 258.297 195.271 248.947 199.17 243.761 C 202.287 239.616 206.64 238.213 211.561 237.454 z"></path>
<path transform="translate(0,0)" fill="rgb(0,0,0)" fill-opacity="0.984314" d="M 197.101 370.806 C 202.018 368.811 206.964 366.685 212.218 365.787 C 230.572 362.652 284.792 363.091 303.691 365.726 C 303.778 365.915 303.857 366.107 303.951 366.292 C 305.55 369.465 308.422 371.292 311.21 373.358 L 310.681 374.141 L 307.86 374.437 C 309.031 375.647 309.694 375.733 311.281 376.021 C 313.702 378.904 314.686 381.408 314.408 385.204 C 314.057 390.003 310.312 401.015 306.547 404.326 C 306.019 404.79 305.809 404.915 305.255 405.32 C 304.446 405.911 304.141 406.466 303.667 407.331 C 299.795 408.6 293.651 408.073 289.506 408.125 C 273.3 408.326 209.353 411.64 199.064 400.299 C 193.431 394.091 196.307 378.534 197.101 370.806 z"></path>
<path transform="translate(0,0)" fill="rgb(0,0,0)" fill-opacity="0.952941" d="M 303.691 365.726 C 309.644 367.532 315.041 369.213 318.195 374.947 C 321.391 380.898 322.098 387.874 320.159 394.345 C 318.784 398.883 316.217 402.777 311.928 404.957 C 309.358 406.263 306.477 406.792 303.667 407.331 C 304.141 406.466 304.446 405.911 305.255 405.32 C 305.809 404.915 306.019 404.79 306.547 404.326 C 310.312 401.015 314.057 390.003 314.408 385.204 C 314.686 381.408 313.702 378.904 311.281 376.021 C 309.694 375.733 309.031 375.647 307.86 374.437 L 310.681 374.141 L 311.21 373.358 C 308.422 371.292 305.55 369.465 303.951 366.292 C 303.857 366.107 303.778 365.915 303.691 365.726 z"></path>
</svg>