<!-- Generated by SVGMaker - https://svgmaker.io --><!-- Quality: medium --><!-- Type: convert --><!-- Created: 2025-08-31T01:24:15.269Z --><svg version="1.1" xmlns="http://www.w3.org/2000/svg" style="display: block;" viewBox="0 0 1024 1024" width="256" height="256" preserveAspectRatio="none">
<path transform="translate(0,0)" fill="rgb(0,0,0)" fill-opacity="0.984314" d="M 222.583 108.476 C 266.292 107.313 310.351 108.382 354.088 108.378 L 613.89 108.366 L 744.873 108.365 C 772.242 108.364 800.977 106.622 828.077 110.569 C 848.321 113.518 866.669 121.664 882.155 135.095 C 905.955 155.736 916.376 181.127 918.441 212.126 C 921.28 254.751 919.239 298.476 919.242 341.247 L 919.26 581.162 L 919.303 740.741 C 919.309 768.374 921.552 799.488 917.745 826.754 C 914.813 847.743 906.584 866.71 892.549 882.629 C 868.038 910.431 842.95 917.502 807.261 919.847 C 761.449 920.744 715.51 920.065 669.681 920.067 L 414.45 920.066 L 285.185 920.09 C 257.12 920.094 227.839 921.744 200.057 917.52 C 179.459 914.389 162.044 906.863 146.288 893.044 C 121.931 871.683 111.126 845.654 109.109 813.688 C 108.143 798.389 108.681 782.824 108.708 767.498 L 108.746 692.062 L 108.721 451.558 L 108.712 291.373 C 108.712 262.189 106.445 230.948 110.414 202.088 C 113.446 180.049 121.661 160.764 136.522 144.037 C 161.378 116.063 186.757 110.634 222.583 108.476 z M 554.5 876.391 C 576.115 876.414 598.657 877.615 620.17 876.107 C 621.391 855.888 620.81 835.514 620.763 815.264 L 620.723 725.659 L 620.722 434.934 L 620.727 242.573 L 620.811 186.632 C 620.858 175.363 621.552 163.667 620.302 152.472 C 592.763 151.468 565.111 152.01 537.553 152.028 L 402.545 152.061 L 284.63 152.052 C 262.416 152.055 239.923 151.364 217.739 152.484 C 197.607 154.535 179.155 159.094 165.73 175.624 C 157.934 185.225 153.511 197.304 152.321 209.564 C 150.89 224.303 151.288 239.444 151.262 254.25 L 151.255 320.7 L 151.265 529.998 L 151.285 720.903 C 151.287 751.819 149.097 791.012 152.369 820.894 C 154.084 837.011 162.197 851.764 174.89 861.844 C 184.311 869.355 195.294 873.648 207.179 875.282 C 221.922 877.308 237.247 876.514 252.107 876.484 L 319.505 876.364 L 554.5 876.391 z M 855.555 859.315 C 882.331 832.413 876.868 803.416 876.785 768.359 L 876.709 381.059 L 876.774 271.959 C 876.797 250.31 878.355 227.247 875.178 205.835 C 873.123 191.984 867.51 179.87 857.487 169.972 C 850.085 162.595 840.808 157.382 830.658 154.895 C 813.25 150.658 793.457 152.007 775.606 152.01 C 739.223 152.017 701.877 153.862 665.598 151.81 C 660.522 167.501 663.205 227.489 663.237 247.871 L 663.266 366.258 L 663.274 704.251 C 663.28 760.227 662.516 816.313 663.297 872.272 C 665.476 874.968 671.25 875.342 674.69 875.704 C 699.358 878.294 725.885 876.462 750.719 876.442 C 770.752 876.426 806.302 878.646 824.999 874.733 C 836.086 872.413 845.408 867.446 854.243 860.409 C 854.689 860.055 855.121 859.683 855.555 859.315 z"></path>
<path transform="translate(0,0)" fill="rgb(0,0,0)" fill-opacity="0.988235" d="M 723.556 237.454 C 740.406 236.663 757.392 236.997 774.261 236.952 C 787.919 236.917 802.41 235.91 815.903 238.159 C 819.856 238.818 823.232 240.416 826.766 242.244 C 829.768 245.842 831.516 249.555 832.16 254.21 C 833.04 260.568 832.012 267.343 827.917 272.468 C 824.41 276.858 820.89 278.51 815.386 279.191 C 800.67 280.245 785.551 279.589 770.783 279.655 C 757.117 279.717 742.339 280.872 728.806 278.977 C 723.638 278.253 718.014 276.77 713.687 273.736 C 710.346 271.393 708.882 268.38 708.236 264.424 C 707.236 258.297 707.271 248.946 711.171 243.761 C 714.286 239.619 718.638 238.215 723.556 237.454 z"></path>
<path transform="translate(0,0)" fill="rgb(0,0,0)" fill-opacity="0.988235" d="M 723.56 493.454 C 740.408 492.664 757.393 492.997 774.261 492.953 C 787.92 492.917 802.408 491.912 815.902 494.159 C 819.859 494.818 823.237 496.419 826.774 498.248 C 829.772 501.843 831.514 505.561 832.157 510.21 C 833.036 516.565 832.013 523.345 827.919 528.468 C 824.414 532.855 820.889 534.506 815.39 535.189 C 800.67 536.233 785.554 535.585 770.784 535.652 C 757.117 535.714 742.339 536.87 728.806 534.976 C 723.638 534.253 718.014 532.77 713.687 529.735 C 710.346 527.393 708.882 524.38 708.236 520.424 C 707.236 514.297 707.271 504.946 711.171 499.761 C 714.287 495.618 718.639 494.214 723.56 493.454 z"></path>
<path transform="translate(0,0)" fill="rgb(0,0,0)" fill-opacity="0.984314" d="M 709.101 370.806 C 714.018 368.812 718.964 366.687 724.218 365.789 C 742.549 362.657 796.822 363.088 815.691 365.727 C 816.802 367.482 817.867 369.041 819.223 370.62 C 822.862 374.854 826.54 382.594 825.989 388.298 C 825.568 392.655 821.341 402.209 817.879 404.867 C 817.675 405.023 817.462 405.167 817.255 405.318 C 816.449 405.909 816.14 406.469 815.667 407.331 C 807.899 409.863 747.641 408.533 736.009 407.752 C 728.731 407.263 715.17 405.571 710.532 399.636 C 705.575 393.291 708.324 378.377 709.101 370.806 z"></path>
<path transform="translate(0,0)" fill="rgb(0,0,0)" fill-opacity="0.952941" d="M 815.691 365.727 C 821.882 367.644 827.252 369.317 830.412 375.354 C 833.497 381.371 834.075 388.363 832.022 394.804 C 830.563 399.237 828.077 402.882 823.848 404.96 C 821.196 406.263 818.564 406.866 815.667 407.331 C 816.14 406.469 816.449 405.909 817.255 405.318 C 817.462 405.167 817.675 405.023 817.879 404.867 C 821.341 402.209 825.568 392.655 825.989 388.298 C 826.54 382.594 822.862 374.854 819.223 370.62 C 817.867 369.041 816.802 367.482 815.691 365.727 z"></path>
</svg>